Coordinates
version=1
nRows=13
nColumns=22
inDegrees=yes

Units are S.I. units (second, meters, Newtons, ...)
If the header above contains a line with 'inDegrees', this indicates whether rotational values are in degrees (yes) or radians (no).

endheader
time	pelvis_tilt	pelvis_list	pelvis_rotation	pelvis_tx	pelvis_ty	pelvis_tz	hip_flexion_r	hip_adduction_r	hip_rotation_r	knee_angle_r	ankle_angle_r	subtalar_angle_r	hip_flexion_l	hip_adduction_l	hip_rotation_l	knee_angle_l	ankle_angle_l	subtalar_angle_l	lumbar_extension	lumbar_bending	lumbar_rotation
      3.13000000	      0.60823805	      4.94412492	    178.41470817	     -0.07682603	      0.89663746	     -0.38697008	    -14.81870159	     -0.81203784	     -9.16787471	    -28.12899271	     -0.46361156	     14.14799231	     32.02012894	     -2.93202750	    -18.26894106	    -32.57826097	      4.01178798	    -19.11733170	      0.21581935	     -3.51254957	      7.19962206
      3.14000000	      0.47706171	      4.71051578	    179.18893478	     -0.08789872	      0.89857869	     -0.38297602	    -13.66982492	     -1.31042029	     -8.77112905	    -31.02221696	     -3.27803040	     14.09941022	     31.25434198	     -2.06852661	    -17.62882876	    -32.64945191	      4.64044441	    -19.00360720	      0.11918748	     -3.81385657	      7.06045299
      3.15000000	      0.36742684	      4.51111706	    179.92616791	     -0.09841814	      0.90039112	     -0.37900570	    -12.24625891	     -1.77774650	     -8.26872866	    -34.19072626	     -6.14450963	     13.95950457	     30.46098374	     -1.27448293	    -17.07995627	    -32.60672228	      5.21798672	    -18.91470565	     -0.03754306	     -4.06680628	      6.94200960
      3.16000000	      0.28504858	      4.31311864	    180.58686883	     -0.10845049	      0.90205037	     -0.37515638	    -10.56806614	     -2.23241806	     -7.60329368	    -37.56978630	     -9.02499009	     13.54993972	     29.62862569	     -0.54556214	    -16.70642616	    -32.43265808	      5.83088245	    -18.86971580	     -0.23020700	     -4.30762513	      6.81082079
      3.17000000	      0.21540348	      4.09774344	    181.20042109	     -0.11800387	      0.90352757	     -0.37139867	     -8.67753960	     -2.69540083	     -6.87780325	    -41.10327058	    -11.85916184	     12.91018053	     28.77630241	      0.14923688	    -16.47396767	    -32.17780942	      6.40386000	    -18.86368061	     -0.47530595	     -4.56347166	      6.67437091
      3.18000000	      0.17027042	      3.85425493	    181.78508367	     -0.12713984	      0.90478823	     -0.36771553	     -6.60603109	     -3.16395638	     -6.10299072	    -44.70766360	    -14.52396356	     12.12181802	     27.92491924	      0.84121435	    -16.31998234	    -31.85190533	      6.96190983	    -18.87588364	     -0.74852176	     -4.84806919	      6.49875264
      3.19000000	      0.15343619	      3.58841906	    182.37354493	     -0.13591199	      0.90580268	     -0.36406750	     -4.39107897	     -3.63268429	     -5.33520439	    -48.30865451	    -16.86185901	     11.20261190	     27.11003134	      1.53409897	    -16.20810602	    -31.51479065	      7.53133443	    -18.89775809	     -1.03630290	     -5.15705701	      6.26344178
      3.20000000	      0.15538535	      3.30034111	    182.98104587	     -0.14437647	      0.90664393	     -0.36043331	     -2.08974742	     -4.07894648	     -4.53666561	    -51.81516151	    -18.75431048	     10.30985913	     26.31807914	      2.24747807	    -16.06909432	    -31.15397979	      8.02232792	    -18.90004707	     -1.33788669	     -5.48929734	      5.96711668
      3.21000000	      0.17279599	      3.01128923	    183.64272373	     -0.15259698	      0.90732159	     -0.35675253	      0.25203674	     -4.47882662	     -3.74135581	    -55.16084616	    -20.08570295	      9.46364374	     25.56844168	      2.96920628	    -15.86131324	    -30.81872847	      8.46955503	    -18.87637579	     -1.64659061	     -5.81921436	      5.59485542
      3.22000000	      0.19522427	      2.72504126	    184.38287536	     -0.16063758	      0.90790857	     -0.35297234	      2.58500166	     -4.82516104	     -2.95667803	    -58.28553005	    -20.83418873	      8.75881719	     24.84354880	      3.70351116	    -15.56808553	    -30.50400883	      8.84361263	    -18.82463230	     -1.96202314	     -6.13738779	      5.10326083
      3.23000000	      0.24285003	      2.50046838	    185.21097173	     -0.16847645	      0.90835853	     -0.34907276	      4.91906897	     -5.05669297	     -2.18955801	    -61.16473159	    -20.92268438	      8.01162833	     24.19616561	      4.40607120	    -15.08724970	    -30.26236252	      9.24894911	    -18.76288660	     -2.25374005	     -6.37602682	      4.59177890
      3.24000000	      0.27529956	      2.28648634	    186.14095477	     -0.17621379	      0.90882262	     -0.34497624	      7.17154120	     -5.24533477	     -1.45454733	    -63.74860013	    -20.52811419	      7.54219131	     23.53026897	      5.12868596	    -14.47647122	    -30.01730384	      9.57546397	    -18.68536510	     -2.55615467	     -6.58446149	      3.97236014
      3.25000000	      0.30171955	      2.10527230	    187.17097051	     -0.18384144	      0.90929155	     -0.34066323	      9.34531571	     -5.38191377	     -0.75767624	    -66.02516744	    -19.72489265	      7.24484940	     22.85565565	      5.85046615	    -13.71370535	    -29.77583729	      9.88451765	    -18.60674715	     -2.85263366	     -6.73222498	      3.28658752
